# xmcd
#
# Track frame offsets:
#	150
#	13357
#	27980
#	40525
#	52515
#	65132
#	78495
#	92370
#	105837
#	120354
#	129777
#	141562
#	154325
#	167670
#	180510
#	194015
#	207177
#	222087
#
# Disc length: 3208 seconds
#
# Revision: 1
# Processed by: cddbd v1.5.2PL0 Copyright (c) Steve Scherf et al.
# Submitted via: EZCDAudioConverter 7.1.5.1
#
DISCID=ea0c8612
DTITLE=Various Artist - A Musical Tribute to France
DYEAR=1996
DGENRE=
TTITLE0=Maurice Chevalier - Ma Pomme
TTITLE1=Josephine Baker - Mayari
TTITLE2=Jean Gabin - Viens Fifine
TTITLE3=Fernandel - Felice Ausse
TTITLE4=Charles Trenet - Je Chante
TTITLE5=Edith Piaf - Simple Comme Bonjour
TTITLE6=Maurice Chevalier - Mon Vieux Paris
TTITLE7=Josephine Baker - Sur Duex Notes
TTITLE8=Jean Gabin - Avec Ma Petite Gueule
TTITLE9=Fernandel - Ignace
TTITLE10=Charles Trenet - Fleur Bleue
TTITLE11=Edith Piaf - Le Petite Monsieur Triste
TTITLE12=Maurice Chevalier - Ca Sent Si Bon La France
TTITLE13=Josephine Baker - Bon Soir, My Love
TTITLE14=Jean Gabin - Qu'est-Ce Que Tu Dis De Ca?
TTITLE15=Fernandel - Je Connais Des Baisers
TTITLE16=Charles Trenet - Menilmontant
TTITLE17=Edith Piaf - On Danse Sur Ma Chanson
EXTD=
EXTT0=
EXTT1=
EXTT2=
EXTT3=
EXTT4=
EXTT5=
EXTT6=
EXTT7=
EXTT8=
EXTT9=
EXTT10=
EXTT11=
EXTT12=
EXTT13=
EXTT14=
EXTT15=
EXTT16=
EXTT17=
PLAYORDER=
